<?xml version="1.0" encoding="UTF-8" standalone="no"?>
<svg
   width="460.8pt"
   height="345.6pt"
   viewBox="0 0 460.8 345.6"
   version="1.1"
   id="svg4630"
   sodipodi:docname="timestamp_problems.svg"
   inkscape:version="1.1.2 (0a00cf5339, 2022-02-04)"
   xmlns:inkscape="http://www.inkscape.org/namespaces/inkscape"
   xmlns:sodipodi="http://sodipodi.sourceforge.net/DTD/sodipodi-0.dtd"
   xmlns:xlink="http://www.w3.org/1999/xlink"
   xmlns="http://www.w3.org/2000/svg"
   xmlns:svg="http://www.w3.org/2000/svg"
   xmlns:rdf="http://www.w3.org/1999/02/22-rdf-syntax-ns#"
   xmlns:cc="http://creativecommons.org/ns#"
   xmlns:dc="http://purl.org/dc/elements/1.1/">
  <sodipodi:namedview
     id="namedview4632"
     pagecolor="#ffffff"
     bordercolor="#666666"
     borderopacity="1.0"
     inkscape:pageshadow="2"
     inkscape:pageopacity="0.0"
     inkscape:pagecheckerboard="0"
     inkscape:document-units="pt"
     showgrid="false"
     inkscape:snap-global="false"
     inkscape:zoom="1.7513021"
     inkscape:cx="307.20001"
     inkscape:cy="230.4"
     inkscape:window-width="1920"
     inkscape:window-height="1016"
     inkscape:window-x="0"
     inkscape:window-y="0"
     inkscape:window-maximized="1"
     inkscape:current-layer="svg4630" />
  <metadata
     id="metadata4007">
    <rdf:RDF>
      <cc:Work>
        <dc:type
           rdf:resource="http://purl.org/dc/dcmitype/StillImage" />
        <dc:date>2022-08-05T17:19:34.364844</dc:date>
        <dc:format>image/svg+xml</dc:format>
        <dc:creator>
          <cc:Agent>
            <dc:title>Matplotlib v3.5.1, https://matplotlib.org/</dc:title>
          </cc:Agent>
        </dc:creator>
      </cc:Work>
    </rdf:RDF>
  </metadata>
  <defs
     id="defs4011">
    <style
       type="text/css"
       id="style4009">*{stroke-linejoin: round; stroke-linecap: butt}</style>
  </defs>
  <g
     id="patch_1">
    <path
       d="M 0,345.6 H 460.8 V 0 H 0 Z"
       style="fill:#ffffff"
       id="path4013" />
  </g>
  <g
     id="patch_2">
    <path
       d="M 57.6,307.584 H 414.72 V 41.472 H 57.6 Z"
       style="fill:#ffffff"
       id="path4016" />
  </g>
  <g
     id="matplotlib.axis_1">
    <g
       id="xtick_1">
      <g
         id="line2d_1">
        <path
           d="M 73.832727,307.584 V 41.472"
           clip-path="url(#pac2e7e0acb)"
           style="fill:none;stroke:#b0b0b0;stroke-width:0.8;stroke-linecap:square"
           id="path4019" />
      </g>
      <g
         id="line2d_2">
        <defs
           id="defs4023">
          <path
             id="mb3c67499c5"
             d="M 0,0 V 3.5"
             style="stroke:#000000;stroke-width:0.8" />
        </defs>
        <g
           id="g4027">
          <use
             xlink:href="#mb3c67499c5"
             x="73.832726"
             y="307.58401"
             style="stroke:#000000;stroke-width:0.8"
             id="use4025"
             width="100%"
             height="100%" />
        </g>
      </g>
      <g
         id="text_1">
        <!-- 0 -->
        <g
           transform="matrix(0.1,0,0,-0.1,70.651477,322.18244)"
           id="g4035">
          <defs
             id="defs4031">
            <path
               id="DejaVuSans-30"
               d="m 2034,4250 q -487,0 -733,-480 -245,-479 -245,-1442 0,-959 245,-1439 246,-480 733,-480 491,0 736,480 246,480 246,1439 0,963 -246,1442 -245,480 -736,480 z m 0,500 q 785,0 1199,-621 414,-620 414,-1801 0,-1178 -414,-1799 -414,-620 -1199,-620 -784,0 -1198,620 -414,621 -414,1799 0,1181 414,1801 414,621 1198,621 z"
               transform="scale(0.015625)" />
          </defs>
          <use
             xlink:href="#DejaVuSans-30"
             id="use4033"
             x="0"
             y="0"
             width="100%"
             height="100%" />
        </g>
      </g>
    </g>
    <g
       id="xtick_2">
      <g
         id="line2d_3">
        <path
           d="M 115.53423,307.584 V 41.472"
           clip-path="url(#pac2e7e0acb)"
           style="fill:none;stroke:#b0b0b0;stroke-width:0.8;stroke-linecap:square"
           id="path4039" />
      </g>
      <g
         id="line2d_4">
        <g
           id="g4044">
          <use
             xlink:href="#mb3c67499c5"
             x="115.53423"
             y="307.58401"
             style="stroke:#000000;stroke-width:0.8"
             id="use4042"
             width="100%"
             height="100%" />
        </g>
      </g>
      <g
         id="text_2">
        <!-- 5000 -->
        <g
           transform="matrix(0.1,0,0,-0.1,102.80923,322.18244)"
           id="g4058">
          <defs
             id="defs4048">
            <path
               id="DejaVuSans-35"
               d="M 691,4666 H 3169 V 4134 H 1269 V 2991 q 137,47 274,70 138,23 276,23 781,0 1237,-428 457,-428 457,-1159 Q 3513,744 3044,326 2575,-91 1722,-91 1428,-91 1123,-41 819,9 494,109 v 635 q 281,-153 581,-228 300,-75 634,-75 541,0 856,284 316,284 316,772 0,487 -316,771 -315,285 -856,285 -253,0 -505,-56 -251,-56 -513,-175 z"
               transform="scale(0.015625)" />
          </defs>
          <use
             xlink:href="#DejaVuSans-35"
             id="use4050"
             x="0"
             y="0"
             width="100%"
             height="100%" />
          <use
             xlink:href="#DejaVuSans-30"
             x="63.623047"
             id="use4052"
             y="0"
             width="100%"
             height="100%" />
          <use
             xlink:href="#DejaVuSans-30"
             x="127.24609"
             id="use4054"
             y="0"
             width="100%"
             height="100%" />
          <use
             xlink:href="#DejaVuSans-30"
             x="190.86914"
             id="use4056"
             y="0"
             width="100%"
             height="100%" />
        </g>
      </g>
    </g>
    <g
       id="xtick_3">
      <g
         id="line2d_5">
        <path
           d="M 157.23573,307.584 V 41.472"
           clip-path="url(#pac2e7e0acb)"
           style="fill:none;stroke:#b0b0b0;stroke-width:0.8;stroke-linecap:square"
           id="path4062" />
      </g>
      <g
         id="line2d_6">
        <g
           id="g4067">
          <use
             xlink:href="#mb3c67499c5"
             x="157.23573"
             y="307.58401"
             style="stroke:#000000;stroke-width:0.8"
             id="use4065"
             width="100%"
             height="100%" />
        </g>
      </g>
      <g
         id="text_3">
        <!-- 10000 -->
        <g
           transform="matrix(0.1,0,0,-0.1,141.32948,322.18244)"
           id="g4083">
          <defs
             id="defs4071">
            <path
               id="DejaVuSans-31"
               d="M 794,531 H 1825 V 4091 L 703,3866 v 575 l 1116,225 h 631 V 531 H 3481 V 0 H 794 Z"
               transform="scale(0.015625)" />
          </defs>
          <use
             xlink:href="#DejaVuSans-31"
             id="use4073"
             x="0"
             y="0"
             width="100%"
             height="100%" />
          <use
             xlink:href="#DejaVuSans-30"
             x="63.623047"
             id="use4075"
             y="0"
             width="100%"
             height="100%" />
          <use
             xlink:href="#DejaVuSans-30"
             x="127.24609"
             id="use4077"
             y="0"
             width="100%"
             height="100%" />
          <use
             xlink:href="#DejaVuSans-30"
             x="190.86914"
             id="use4079"
             y="0"
             width="100%"
             height="100%" />
          <use
             xlink:href="#DejaVuSans-30"
             x="254.49219"
             id="use4081"
             y="0"
             width="100%"
             height="100%" />
        </g>
      </g>
    </g>
    <g
       id="xtick_4">
      <g
         id="line2d_7">
        <path
           d="M 198.93724,307.584 V 41.472"
           clip-path="url(#pac2e7e0acb)"
           style="fill:none;stroke:#b0b0b0;stroke-width:0.8;stroke-linecap:square"
           id="path4087" />
      </g>
      <g
         id="line2d_8">
        <g
           id="g4092">
          <use
             xlink:href="#mb3c67499c5"
             x="198.93724"
             y="307.58401"
             style="stroke:#000000;stroke-width:0.8"
             id="use4090"
             width="100%"
             height="100%" />
        </g>
      </g>
      <g
         id="text_4">
        <!-- 15000 -->
        <g
           transform="matrix(0.1,0,0,-0.1,183.03099,322.18244)"
           id="g4105">
          <use
             xlink:href="#DejaVuSans-31"
             id="use4095"
             x="0"
             y="0"
             width="100%"
             height="100%" />
          <use
             xlink:href="#DejaVuSans-35"
             x="63.623047"
             id="use4097"
             y="0"
             width="100%"
             height="100%" />
          <use
             xlink:href="#DejaVuSans-30"
             x="127.24609"
             id="use4099"
             y="0"
             width="100%"
             height="100%" />
          <use
             xlink:href="#DejaVuSans-30"
             x="190.86914"
             id="use4101"
             y="0"
             width="100%"
             height="100%" />
          <use
             xlink:href="#DejaVuSans-30"
             x="254.49219"
             id="use4103"
             y="0"
             width="100%"
             height="100%" />
        </g>
      </g>
    </g>
    <g
       id="xtick_5">
      <g
         id="line2d_9">
        <path
           d="M 240.63874,307.584 V 41.472"
           clip-path="url(#pac2e7e0acb)"
           style="fill:none;stroke:#b0b0b0;stroke-width:0.8;stroke-linecap:square"
           id="path4109" />
      </g>
      <g
         id="line2d_10">
        <g
           id="g4114">
          <use
             xlink:href="#mb3c67499c5"
             x="240.63875"
             y="307.58401"
             style="stroke:#000000;stroke-width:0.8"
             id="use4112"
             width="100%"
             height="100%" />
        </g>
      </g>
      <g
         id="text_5">
        <!-- 20000 -->
        <g
           transform="matrix(0.1,0,0,-0.1,224.73249,322.18244)"
           id="g4130">
          <defs
             id="defs4118">
            <path
               id="DejaVuSans-32"
               d="M 1228,531 H 3431 V 0 H 469 v 531 q 359,372 979,998 621,627 780,809 303,340 423,576 121,236 121,464 0,372 -261,606 -261,235 -680,235 -297,0 -627,-103 -329,-103 -704,-313 v 638 q 381,153 712,231 332,78 607,78 725,0 1156,-363 431,-362 431,-968 0,-288 -108,-546 -107,-257 -392,-607 -78,-91 -497,-524 Q 1991,1309 1228,531 Z"
               transform="scale(0.015625)" />
          </defs>
          <use
             xlink:href="#DejaVuSans-32"
             id="use4120"
             x="0"
             y="0"
             width="100%"
             height="100%" />
          <use
             xlink:href="#DejaVuSans-30"
             x="63.623047"
             id="use4122"
             y="0"
             width="100%"
             height="100%" />
          <use
             xlink:href="#DejaVuSans-30"
             x="127.24609"
             id="use4124"
             y="0"
             width="100%"
             height="100%" />
          <use
             xlink:href="#DejaVuSans-30"
             x="190.86914"
             id="use4126"
             y="0"
             width="100%"
             height="100%" />
          <use
             xlink:href="#DejaVuSans-30"
             x="254.49219"
             id="use4128"
             y="0"
             width="100%"
             height="100%" />
        </g>
      </g>
    </g>
    <g
       id="xtick_6">
      <g
         id="line2d_11">
        <path
           d="M 282.34024,307.584 V 41.472"
           clip-path="url(#pac2e7e0acb)"
           style="fill:none;stroke:#b0b0b0;stroke-width:0.8;stroke-linecap:square"
           id="path4134" />
      </g>
      <g
         id="line2d_12">
        <g
           id="g4139">
          <use
             xlink:href="#mb3c67499c5"
             x="282.34024"
             y="307.58401"
             style="stroke:#000000;stroke-width:0.8"
             id="use4137"
             width="100%"
             height="100%" />
        </g>
      </g>
      <g
         id="text_6">
        <!-- 25000 -->
        <g
           transform="matrix(0.1,0,0,-0.1,266.43399,322.18244)"
           id="g4152">
          <use
             xlink:href="#DejaVuSans-32"
             id="use4142"
             x="0"
             y="0"
             width="100%"
             height="100%" />
          <use
             xlink:href="#DejaVuSans-35"
             x="63.623047"
             id="use4144"
             y="0"
             width="100%"
             height="100%" />
          <use
             xlink:href="#DejaVuSans-30"
             x="127.24609"
             id="use4146"
             y="0"
             width="100%"
             height="100%" />
          <use
             xlink:href="#DejaVuSans-30"
             x="190.86914"
             id="use4148"
             y="0"
             width="100%"
             height="100%" />
          <use
             xlink:href="#DejaVuSans-30"
             x="254.49219"
             id="use4150"
             y="0"
             width="100%"
             height="100%" />
        </g>
      </g>
    </g>
    <g
       id="xtick_7">
      <g
         id="line2d_13">
        <path
           d="M 324.04175,307.584 V 41.472"
           clip-path="url(#pac2e7e0acb)"
           style="fill:none;stroke:#b0b0b0;stroke-width:0.8;stroke-linecap:square"
           id="path4156" />
      </g>
      <g
         id="line2d_14">
        <g
           id="g4161">
          <use
             xlink:href="#mb3c67499c5"
             x="324.04175"
             y="307.58401"
             style="stroke:#000000;stroke-width:0.8"
             id="use4159"
             width="100%"
             height="100%" />
        </g>
      </g>
      <g
         id="text_7">
        <!-- 30000 -->
        <g
           transform="matrix(0.1,0,0,-0.1,308.1355,322.18244)"
           id="g4177">
          <defs
             id="defs4165">
            <path
               id="DejaVuSans-33"
               d="m 2597,2516 q 453,-97 707,-404 255,-306 255,-756 0,-690 -475,-1069 -475,-378 -1350,-378 -293,0 -604,58 -311,58 -642,174 v 609 q 262,-153 574,-231 313,-78 654,-78 593,0 904,234 311,234 311,681 0,413 -289,645 -289,233 -804,233 h -544 v 519 h 569 q 465,0 712,186 247,186 247,536 0,359 -255,551 -254,193 -729,193 -260,0 -557,-57 -297,-56 -653,-174 v 562 q 360,100 674,150 314,50 592,50 719,0 1137,-327 419,-326 419,-882 0,-388 -222,-655 -222,-267 -631,-370 z"
               transform="scale(0.015625)" />
          </defs>
          <use
             xlink:href="#DejaVuSans-33"
             id="use4167"
             x="0"
             y="0"
             width="100%"
             height="100%" />
          <use
             xlink:href="#DejaVuSans-30"
             x="63.623047"
             id="use4169"
             y="0"
             width="100%"
             height="100%" />
          <use
             xlink:href="#DejaVuSans-30"
             x="127.24609"
             id="use4171"
             y="0"
             width="100%"
             height="100%" />
          <use
             xlink:href="#DejaVuSans-30"
             x="190.86914"
             id="use4173"
             y="0"
             width="100%"
             height="100%" />
          <use
             xlink:href="#DejaVuSans-30"
             x="254.49219"
             id="use4175"
             y="0"
             width="100%"
             height="100%" />
        </g>
      </g>
    </g>
    <g
       id="xtick_8">
      <g
         id="line2d_15">
        <path
           d="M 365.74325,307.584 V 41.472"
           clip-path="url(#pac2e7e0acb)"
           style="fill:none;stroke:#b0b0b0;stroke-width:0.8;stroke-linecap:square"
           id="path4181" />
      </g>
      <g
         id="line2d_16">
        <g
           id="g4186">
          <use
             xlink:href="#mb3c67499c5"
             x="365.74326"
             y="307.58401"
             style="stroke:#000000;stroke-width:0.8"
             id="use4184"
             width="100%"
             height="100%" />
        </g>
      </g>
      <g
         id="text_8">
        <!-- 35000 -->
        <g
           transform="matrix(0.1,0,0,-0.1,349.837,322.18244)"
           id="g4199">
          <use
             xlink:href="#DejaVuSans-33"
             id="use4189"
             x="0"
             y="0"
             width="100%"
             height="100%" />
          <use
             xlink:href="#DejaVuSans-35"
             x="63.623047"
             id="use4191"
             y="0"
             width="100%"
             height="100%" />
          <use
             xlink:href="#DejaVuSans-30"
             x="127.24609"
             id="use4193"
             y="0"
             width="100%"
             height="100%" />
          <use
             xlink:href="#DejaVuSans-30"
             x="190.86914"
             id="use4195"
             y="0"
             width="100%"
             height="100%" />
          <use
             xlink:href="#DejaVuSans-30"
             x="254.49219"
             id="use4197"
             y="0"
             width="100%"
             height="100%" />
        </g>
      </g>
    </g>
    <g
       id="xtick_9">
      <g
         id="line2d_17">
        <path
           d="M 407.44476,307.584 V 41.472"
           clip-path="url(#pac2e7e0acb)"
           style="fill:none;stroke:#b0b0b0;stroke-width:0.8;stroke-linecap:square"
           id="path4203" />
      </g>
      <g
         id="line2d_18">
        <g
           id="g4208">
          <use
             xlink:href="#mb3c67499c5"
             x="407.44476"
             y="307.58401"
             style="stroke:#000000;stroke-width:0.8"
             id="use4206"
             width="100%"
             height="100%" />
        </g>
      </g>
      <g
         id="text_9">
        <!-- 40000 -->
        <g
           transform="matrix(0.1,0,0,-0.1,391.53851,322.18244)"
           id="g4224">
          <defs
             id="defs4212">
            <path
               id="DejaVuSans-34"
               d="M 2419,4116 825,1625 h 1594 z m -166,550 h 794 V 1625 h 666 V 1100 H 3047 V 0 H 2419 V 1100 H 313 v 609 z"
               transform="scale(0.015625)" />
          </defs>
          <use
             xlink:href="#DejaVuSans-34"
             id="use4214"
             x="0"
             y="0"
             width="100%"
             height="100%" />
          <use
             xlink:href="#DejaVuSans-30"
             x="63.623047"
             id="use4216"
             y="0"
             width="100%"
             height="100%" />
          <use
             xlink:href="#DejaVuSans-30"
             x="127.24609"
             id="use4218"
             y="0"
             width="100%"
             height="100%" />
          <use
             xlink:href="#DejaVuSans-30"
             x="190.86914"
             id="use4220"
             y="0"
             width="100%"
             height="100%" />
          <use
             xlink:href="#DejaVuSans-30"
             x="254.49219"
             id="use4222"
             y="0"
             width="100%"
             height="100%" />
        </g>
      </g>
    </g>
    <g
       id="text_10">
      <!-- Timestamp index -->
      <g
         transform="matrix(0.1,0,0,-0.1,192.98344,335.86056)"
         id="g4272">
        <defs
           id="defs4240">
          <path
             id="DejaVuSans-54"
             d="M -19,4666 H 3928 V 4134 H 2272 V 0 H 1638 V 4134 H -19 Z"
             transform="scale(0.015625)" />
          <path
             id="DejaVuSans-69"
             d="m 603,3500 h 575 V 0 H 603 Z m 0,1363 h 575 V 4134 H 603 Z"
             transform="scale(0.015625)" />
          <path
             id="DejaVuSans-6d"
             d="m 3328,2828 q 216,388 516,572 300,184 706,184 547,0 844,-383 297,-382 297,-1088 V 0 h -578 v 2094 q 0,503 -179,746 -178,244 -543,244 -447,0 -707,-297 -259,-296 -259,-809 V 0 h -578 v 2094 q 0,506 -178,748 -178,242 -550,242 -441,0 -701,-298 -259,-298 -259,-808 V 0 H 581 v 3500 h 578 v -544 q 197,322 472,475 275,153 653,153 382,0 649,-194 267,-193 395,-562 z"
             transform="scale(0.015625)" />
          <path
             id="DejaVuSans-65"
             d="M 3597,1894 V 1613 H 953 q 38,-594 358,-905 320,-311 892,-311 331,0 642,81 311,81 618,244 V 178 Q 3153,47 2828,-22 2503,-91 2169,-91 1331,-91 842,396 353,884 353,1716 q 0,859 464,1363 464,505 1252,505 706,0 1117,-455 411,-454 411,-1235 z m -575,169 q -6,471 -264,752 -258,282 -683,282 -481,0 -770,-272 -289,-272 -333,-766 z"
             transform="scale(0.015625)" />
          <path
             id="DejaVuSans-73"
             d="m 2834,3397 v -544 q -243,125 -506,187 -262,63 -544,63 -428,0 -642,-131 -214,-131 -214,-394 0,-200 153,-314 153,-114 616,-217 l 197,-44 q 612,-131 870,-370 258,-239 258,-667 0,-488 -386,-773 Q 2250,-91 1575,-91 1294,-91 989,-36 684,19 347,128 v 594 q 319,-166 628,-249 309,-82 613,-82 406,0 624,139 219,139 219,392 0,234 -158,359 -157,125 -692,241 l -200,47 q -534,112 -772,345 -237,233 -237,639 0,494 350,762 350,269 994,269 318,0 599,-47 282,-46 519,-140 z"
             transform="scale(0.015625)" />
          <path
             id="DejaVuSans-74"
             d="M 1172,4494 V 3500 H 2356 V 3053 H 1172 V 1153 q 0,-428 117,-550 117,-122 477,-122 h 590 V 0 H 1766 Q 1100,0 847,248 594,497 594,1153 V 3053 H 172 v 447 h 422 v 994 z"
             transform="scale(0.015625)" />
          <path
             id="DejaVuSans-61"
             d="m 2194,1759 q -697,0 -966,-159 -269,-159 -269,-544 0,-306 202,-486 202,-179 548,-179 479,0 768,339 289,339 289,901 v 128 z m 1147,238 V 0 H 2766 V 531 Q 2569,213 2275,61 1981,-91 1556,-91 q -537,0 -855,302 -317,302 -317,808 0,590 395,890 396,300 1180,300 h 807 v 57 q 0,397 -261,614 -261,217 -733,217 -300,0 -585,-72 -284,-72 -546,-216 v 532 q 315,122 612,182 297,61 578,61 760,0 1135,-394 375,-393 375,-1193 z"
             transform="scale(0.015625)" />
          <path
             id="DejaVuSans-70"
             d="M 1159,525 V -1331 H 581 v 4831 h 578 v -531 q 182,312 458,463 277,152 661,152 638,0 1036,-506 399,-506 399,-1331 0,-825 -399,-1332 -398,-506 -1036,-506 -384,0 -661,152 -276,152 -458,464 z m 1957,1222 q 0,634 -261,995 -261,361 -717,361 -457,0 -718,-361 -261,-361 -261,-995 0,-634 261,-995 261,-361 718,-361 456,0 717,361 261,361 261,995 z"
             transform="scale(0.015625)" />
          <path
             id="DejaVuSans-20"
             transform="scale(0.015625)"
             d="" />
          <path
             id="DejaVuSans-6e"
             d="M 3513,2113 V 0 h -575 v 2094 q 0,497 -194,743 -194,247 -581,247 -466,0 -735,-297 -269,-296 -269,-809 V 0 H 581 v 3500 h 578 v -544 q 207,316 486,472 280,156 646,156 603,0 912,-373 310,-373 310,-1098 z"
             transform="scale(0.015625)" />
          <path
             id="DejaVuSans-64"
             d="m 2906,2969 v 1894 h 575 V 0 H 2906 V 525 Q 2725,213 2448,61 2172,-91 1784,-91 1150,-91 751,415 353,922 353,1747 q 0,825 398,1331 399,506 1033,506 388,0 664,-152 277,-151 458,-463 z M 947,1747 q 0,-634 261,-995 261,-361 717,-361 456,0 718,361 263,361 263,995 0,634 -263,995 -262,361 -718,361 -456,0 -717,-361 -261,-361 -261,-995 z"
             transform="scale(0.015625)" />
          <path
             id="DejaVuSans-78"
             d="M 3513,3500 2247,1797 3578,0 H 2900 L 1881,1375 863,0 H 184 L 1544,1831 300,3500 h 678 l 928,-1247 928,1247 z"
             transform="scale(0.015625)" />
        </defs>
        <use
           xlink:href="#DejaVuSans-54"
           id="use4242"
           x="0"
           y="0"
           width="100%"
           height="100%" />
        <use
           xlink:href="#DejaVuSans-69"
           x="57.958984"
           id="use4244"
           y="0"
           width="100%"
           height="100%" />
        <use
           xlink:href="#DejaVuSans-6d"
           x="85.742188"
           id="use4246"
           y="0"
           width="100%"
           height="100%" />
        <use
           xlink:href="#DejaVuSans-65"
           x="183.1543"
           id="use4248"
           y="0"
           width="100%"
           height="100%" />
        <use
           xlink:href="#DejaVuSans-73"
           x="244.67773"
           id="use4250"
           y="0"
           width="100%"
           height="100%" />
        <use
           xlink:href="#DejaVuSans-74"
           x="296.77734"
           id="use4252"
           y="0"
           width="100%"
           height="100%" />
        <use
           xlink:href="#DejaVuSans-61"
           x="335.98633"
           id="use4254"
           y="0"
           width="100%"
           height="100%" />
        <use
           xlink:href="#DejaVuSans-6d"
           x="397.26562"
           id="use4256"
           y="0"
           width="100%"
           height="100%" />
        <use
           xlink:href="#DejaVuSans-70"
           x="494.67773"
           id="use4258"
           y="0"
           width="100%"
           height="100%" />
        <use
           xlink:href="#DejaVuSans-20"
           x="558.1543"
           id="use4260"
           y="0"
           width="100%"
           height="100%" />
        <use
           xlink:href="#DejaVuSans-69"
           x="589.94141"
           id="use4262"
           y="0"
           width="100%"
           height="100%" />
        <use
           xlink:href="#DejaVuSans-6e"
           x="617.72461"
           id="use4264"
           y="0"
           width="100%"
           height="100%" />
        <use
           xlink:href="#DejaVuSans-64"
           x="681.10352"
           id="use4266"
           y="0"
           width="100%"
           height="100%" />
        <use
           xlink:href="#DejaVuSans-65"
           x="744.58008"
           id="use4268"
           y="0"
           width="100%"
           height="100%" />
        <use
           xlink:href="#DejaVuSans-78"
           x="804.35352"
           id="use4270"
           y="0"
           width="100%"
           height="100%" />
      </g>
    </g>
  </g>
  <g
     id="matplotlib.axis_2">
    <g
       id="ytick_1">
      <g
         id="line2d_19">
        <path
           d="M 57.6,295.49657 H 414.72"
           clip-path="url(#pac2e7e0acb)"
           style="fill:none;stroke:#b0b0b0;stroke-width:0.8;stroke-linecap:square"
           id="path4276" />
      </g>
      <g
         id="line2d_20">
        <defs
           id="defs4280">
          <path
             id="mee545f1e3c"
             d="M 0,0 H -3.5"
             style="stroke:#000000;stroke-width:0.8" />
        </defs>
        <g
           id="g4284">
          <use
             xlink:href="#mee545f1e3c"
             x="57.599998"
             y="295.49658"
             style="stroke:#000000;stroke-width:0.8"
             id="use4282"
             width="100%"
             height="100%" />
        </g>
      </g>
      <g
         id="text_11">
        <!-- 0 -->
        <g
           transform="matrix(0.1,0,0,-0.1,44.2375,299.29579)"
           id="g4289">
          <use
             xlink:href="#DejaVuSans-30"
             id="use4287"
             x="0"
             y="0"
             width="100%"
             height="100%" />
        </g>
      </g>
    </g>
    <g
       id="ytick_2">
      <g
         id="line2d_21">
        <path
           d="M 57.6,240.48199 H 414.72"
           clip-path="url(#pac2e7e0acb)"
           style="fill:none;stroke:#b0b0b0;stroke-width:0.8;stroke-linecap:square"
           id="path4293" />
      </g>
      <g
         id="line2d_22">
        <g
           id="g4298">
          <use
             xlink:href="#mee545f1e3c"
             x="57.599998"
             y="240.48199"
             style="stroke:#000000;stroke-width:0.8"
             id="use4296"
             width="100%"
             height="100%" />
        </g>
      </g>
      <g
         id="text_12">
        <!-- 2 -->
        <g
           transform="matrix(0.1,0,0,-0.1,44.2375,244.28121)"
           id="g4303">
          <use
             xlink:href="#DejaVuSans-32"
             id="use4301"
             x="0"
             y="0"
             width="100%"
             height="100%" />
        </g>
      </g>
    </g>
    <g
       id="ytick_3">
      <g
         id="line2d_23">
        <path
           d="M 57.6,185.46741 H 414.72"
           clip-path="url(#pac2e7e0acb)"
           style="fill:none;stroke:#b0b0b0;stroke-width:0.8;stroke-linecap:square"
           id="path4307" />
      </g>
      <g
         id="line2d_24">
        <g
           id="g4312">
          <use
             xlink:href="#mee545f1e3c"
             x="57.599998"
             y="185.46742"
             style="stroke:#000000;stroke-width:0.8"
             id="use4310"
             width="100%"
             height="100%" />
        </g>
      </g>
      <g
         id="text_13">
        <!-- 4 -->
        <g
           transform="matrix(0.1,0,0,-0.1,44.2375,189.26663)"
           id="g4317">
          <use
             xlink:href="#DejaVuSans-34"
             id="use4315"
             x="0"
             y="0"
             width="100%"
             height="100%" />
        </g>
      </g>
    </g>
    <g
       id="ytick_4">
      <g
         id="line2d_25">
        <path
           d="M 57.6,130.45284 H 414.72"
           clip-path="url(#pac2e7e0acb)"
           style="fill:none;stroke:#b0b0b0;stroke-width:0.8;stroke-linecap:square"
           id="path4321" />
      </g>
      <g
         id="line2d_26">
        <g
           id="g4326">
          <use
             xlink:href="#mee545f1e3c"
             x="57.599998"
             y="130.45284"
             style="stroke:#000000;stroke-width:0.8"
             id="use4324"
             width="100%"
             height="100%" />
        </g>
      </g>
      <g
         id="text_14">
        <!-- 6 -->
        <g
           transform="matrix(0.1,0,0,-0.1,44.2375,134.25206)"
           id="g4334">
          <defs
             id="defs4330">
            <path
               id="DejaVuSans-36"
               d="m 2113,2584 q -425,0 -674,-291 -248,-290 -248,-796 0,-503 248,-796 249,-292 674,-292 425,0 673,292 248,293 248,796 0,506 -248,796 -248,291 -673,291 z m 1253,1979 v -575 q -238,112 -480,171 -242,60 -480,60 -625,0 -955,-422 -329,-422 -376,-1275 184,272 462,417 279,145 613,145 703,0 1111,-427 408,-426 408,-1160 0,-719 -425,-1154 -425,-434 -1131,-434 -810,0 -1238,620 -428,621 -428,1799 0,1106 525,1764 525,658 1409,658 238,0 480,-47 242,-47 505,-140 z"
               transform="scale(0.015625)" />
          </defs>
          <use
             xlink:href="#DejaVuSans-36"
             id="use4332"
             x="0"
             y="0"
             width="100%"
             height="100%" />
        </g>
      </g>
    </g>
    <g
       id="ytick_5">
      <g
         id="line2d_27">
        <path
           d="M 57.6,75.438261 H 414.72"
           clip-path="url(#pac2e7e0acb)"
           style="fill:none;stroke:#b0b0b0;stroke-width:0.8;stroke-linecap:square"
           id="path4338" />
      </g>
      <g
         id="line2d_28">
        <g
           id="g4343">
          <use
             xlink:href="#mee545f1e3c"
             x="57.599998"
             y="75.438263"
             style="stroke:#000000;stroke-width:0.8"
             id="use4341"
             width="100%"
             height="100%" />
        </g>
      </g>
      <g
         id="text_15">
        <!-- 8 -->
        <g
           transform="matrix(0.1,0,0,-0.1,44.2375,79.237479)"
           id="g4351">
          <defs
             id="defs4347">
            <path
               id="DejaVuSans-38"
               d="m 2034,2216 q -450,0 -708,-241 -257,-241 -257,-662 0,-422 257,-663 258,-241 708,-241 450,0 709,242 260,243 260,662 0,421 -258,662 -257,241 -711,241 z m -631,268 q -406,100 -633,378 -226,279 -226,679 0,559 398,884 399,325 1092,325 697,0 1094,-325 397,-325 397,-884 0,-400 -227,-679 -226,-278 -629,-378 456,-106 710,-416 255,-309 255,-755 Q 3634,634 3220,271 2806,-91 2034,-91 1263,-91 848,271 434,634 434,1313 q 0,446 256,755 257,310 713,416 z m -231,997 q 0,-362 226,-565 227,-203 636,-203 407,0 636,203 230,203 230,565 0,363 -230,566 -229,203 -636,203 -409,0 -636,-203 -226,-203 -226,-566 z"
               transform="scale(0.015625)" />
          </defs>
          <use
             xlink:href="#DejaVuSans-38"
             id="use4349"
             x="0"
             y="0"
             width="100%"
             height="100%" />
        </g>
      </g>
    </g>
    <g
       id="text_16">
      <!-- Timestamps [ch] -->
      <g
         transform="matrix(0,-0.1,-0.1,0,38.157812,216.44831)"
         id="g4391">
        <defs
           id="defs4359">
          <path
             id="DejaVuSans-5b"
             d="M 550,4863 H 1875 V 4416 H 1125 V -397 h 750 V -844 H 550 Z"
             transform="scale(0.015625)" />
          <path
             id="DejaVuSans-63"
             d="m 3122,3366 v -538 q -244,135 -489,202 -245,67 -495,67 -560,0 -870,-355 -309,-354 -309,-995 0,-641 309,-996 310,-354 870,-354 250,0 495,67 245,67 489,202 V 134 Q 2881,22 2623,-34 2366,-91 2075,-91 1284,-91 818,406 353,903 353,1747 q 0,856 470,1346 471,491 1290,491 265,0 518,-55 253,-54 491,-163 z"
             transform="scale(0.015625)" />
          <path
             id="DejaVuSans-68"
             d="M 3513,2113 V 0 h -575 v 2094 q 0,497 -194,743 -194,247 -581,247 -466,0 -735,-297 -269,-296 -269,-809 V 0 H 581 v 4863 h 578 V 2956 q 207,316 486,472 280,156 646,156 603,0 912,-373 310,-373 310,-1098 z"
             transform="scale(0.015625)" />
          <path
             id="DejaVuSans-5d"
             d="M 1947,4863 V -844 H 622 v 447 h 747 V 4416 H 622 v 447 z"
             transform="scale(0.015625)" />
        </defs>
        <use
           xlink:href="#DejaVuSans-54"
           id="use4361"
           x="0"
           y="0"
           width="100%"
           height="100%" />
        <use
           xlink:href="#DejaVuSans-69"
           x="57.958984"
           id="use4363"
           y="0"
           width="100%"
           height="100%" />
        <use
           xlink:href="#DejaVuSans-6d"
           x="85.742188"
           id="use4365"
           y="0"
           width="100%"
           height="100%" />
        <use
           xlink:href="#DejaVuSans-65"
           x="183.1543"
           id="use4367"
           y="0"
           width="100%"
           height="100%" />
        <use
           xlink:href="#DejaVuSans-73"
           x="244.67773"
           id="use4369"
           y="0"
           width="100%"
           height="100%" />
        <use
           xlink:href="#DejaVuSans-74"
           x="296.77734"
           id="use4371"
           y="0"
           width="100%"
           height="100%" />
        <use
           xlink:href="#DejaVuSans-61"
           x="335.98633"
           id="use4373"
           y="0"
           width="100%"
           height="100%" />
        <use
           xlink:href="#DejaVuSans-6d"
           x="397.26562"
           id="use4375"
           y="0"
           width="100%"
           height="100%" />
        <use
           xlink:href="#DejaVuSans-70"
           x="494.67773"
           id="use4377"
           y="0"
           width="100%"
           height="100%" />
        <use
           xlink:href="#DejaVuSans-73"
           x="558.1543"
           id="use4379"
           y="0"
           width="100%"
           height="100%" />
        <use
           xlink:href="#DejaVuSans-20"
           x="610.25391"
           id="use4381"
           y="0"
           width="100%"
           height="100%" />
        <use
           xlink:href="#DejaVuSans-5b"
           x="642.04102"
           id="use4383"
           y="0"
           width="100%"
           height="100%" />
        <use
           xlink:href="#DejaVuSans-63"
           x="681.05469"
           id="use4385"
           y="0"
           width="100%"
           height="100%" />
        <use
           xlink:href="#DejaVuSans-68"
           x="736.03516"
           id="use4387"
           y="0"
           width="100%"
           height="100%" />
        <use
           xlink:href="#DejaVuSans-5d"
           x="799.41406"
           id="use4389"
           y="0"
           width="100%"
           height="100%" />
      </g>
    </g>
    <g
       id="text_17">
      <!-- 1e12 -->
      <g
         transform="matrix(0.1,0,0,-0.1,57.6,38.472)"
         id="g4402">
        <use
           xlink:href="#DejaVuSans-31"
           id="use4394"
           x="0"
           y="0"
           width="100%"
           height="100%" />
        <use
           xlink:href="#DejaVuSans-65"
           x="63.623047"
           id="use4396"
           y="0"
           width="100%"
           height="100%" />
        <use
           xlink:href="#DejaVuSans-31"
           x="125.14648"
           id="use4398"
           y="0"
           width="100%"
           height="100%" />
        <use
           xlink:href="#DejaVuSans-32"
           x="188.76953"
           id="use4400"
           y="0"
           width="100%"
           height="100%" />
      </g>
    </g>
  </g>
  <g
     id="line2d_29">
    <path
       d="m 73.832727,265.77917 0.01668,-0.3846 0.158466,-2.88036 2.543791,-42.97404 0.01668,-0.0607 0.141785,-2.64681 0.01668,-0.11763 0.358633,-6.26249 0.01668,-0.0383 0.158466,-1.54103 0.100083,-1.91184 0.158466,-2.60987 0.675565,-8.37591 0.166806,-2.40672 0.216847,-3.46736 0.25855,-3.39148 0.09174,-1.08654 0.150125,-2.60203 0.125105,-1.90807 0.258549,-4.0142 0.03336,-0.20174 0.166806,-3.36577 0.06672,-1.50518 1.451212,-24.63149 0.0083,-0.003 0.54212,-7.23243 0.56714,-6.81301 0.27523,-2.79621 0.02502,-0.2116 0.225188,-3.17292 0.06672,-0.73003 0.325272,-3.88669 0.141785,-1.89936 0.692245,-9.62096 0.0083,-0.016 0.183487,-3.01443 0.200167,-2.34939 0.03336,-0.17783 0.56714,-9.441746 0.0417,-0.108326 0.141785,-2.593775 0.158466,-2.562957 0.867391,-16.328477 0.291911,-3.089009 0.28357,-5.196542 0.366973,-4.211248 0.26689,-3.413496 0.258549,-4.759831 0.0083,241.433097 0.108424,-1.84009 0.200167,-2.44555 0.0834,-0.3705 0.625523,-9.54604 0.141785,-2.01477 0.0417,-0.27483 0.141785,-2.78848 0.800669,-12.98428 0.642203,-10.81983 0.0083,-0.009 0.241869,-2.91352 0.0417,-0.568 0.200167,-3.40249 0.0083,-0.004 0.133445,-2.56913 0.03336,-0.96271 0.700585,-12.15038 0.03336,-0.2729 0.175147,-3.3212 0.175146,-3.1926 0.01668,-0.23033 0.07506,-1.89581 0.133445,-1.77167 0.03336,-0.32367 0.05838,-0.55335 0.200167,-1.96373 0.27523,-3.95952 0.100084,-0.73485 0.200167,-2.42416 0.141785,-2.79645 0.300251,-3.87982 0.05004,-0.52694 0.225188,-4.32528 0.158466,-2.69991 0.01668,-0.0648 0.133445,-2.10818 0.150126,-2.45508 0.550459,-6.67952 0.03336,-0.33378 0.433695,-6.39309 0.133445,-2.01744 0.308591,-3.55574 0.07506,-0.44628 0.233528,-3.76705 0.141785,-1.44616 0.241869,-3.25817 0.0417,-0.6677 0.191827,-2.72546 0.03336,-0.26163 0.133445,-2.99971 0.483737,-5.85887 0.325272,-5.03173 0.02502,-0.33007 0.183486,-2.57309 0.03336,-0.31758 0.400334,-6.03778 0.02502,-0.20983 0.141785,-2.33911 0.02502,-0.0948 0.05004,-0.68113 0.191827,-1.69202 0.0834,-0.90695 0.633862,-10.43573 0.01668,-0.24971 0.158466,-2.69807 0.283577,-3.7839 0.14178,-2.57753 1.48457,-22.199942 0.0334,-0.06288 0.34195,-3.854537 0.14178,-3.204267 0.27523,-4.362746 0.025,-0.09617 0.22519,-5.095193 0.18349,-2.064435 0.41701,-6.728104 0.34196,-4.056 0.15012,-1.471915 0.14179,-2.71238 0.008,241.535629 0.10842,-1.65258 0.10009,-1.10468 0.30859,-4.66002 0.05,-0.49273 0.34195,-7.04181 0.025,-0.27254 0.19183,-2.52106 0.10008,-1.42232 0.16681,-1.67379 0.0917,-1.6534 0.392,-5.54773 0.025,-0.0975 0.18348,-1.87946 0.69225,-12.38464 0.0417,-0.57043 0.15846,-2.81491 0.008,-0.007 0.17514,-3.24944 0.12511,-1.6351 0.15012,-2.71206 0.27523,-3.93687 0.0667,-0.9859 0.16681,-2.55136 0.0584,-0.39282 0.38366,-4.84304 0.025,-0.11748 0.17514,-3.15253 0.0167,-0.0818 0.19183,-2.19339 0.13344,-3.20635 0.13345,-1.42978 0.0417,-0.2846 0.33361,-4.90265 0.0334,-0.39465 0.29191,-4.97589 0.0334,-0.40208 0.17514,-2.67642 0.12511,-2.01229 0.26689,-3.58716 0.05,-0.45006 0.15012,-2.75775 0.56714,-7.54437 0.25855,-3.99964 0.23353,-3.14552 0.15847,-3.14509 0.45871,-5.85905 0.18349,-2.33482 0.58382,-7.95 0.15013,-1.89341 0.40867,-5.35795 0.24187,-2.54092 0.9925,-0.4241 0.42535,-0.31911 0.12511,-1.82898 0.19182,-3.46039 0.0751,-0.72536 0.56714,-8.56586 0.0584,-0.32485 0.15012,-2.85081 0.25021,-3.67955 0.008,-0.0357 0.12511,-2.13758 0.13344,-1.97983 0.17515,-2.83312 0.0584,-0.59172 0.25021,-3.32944 0.25021,-3.26268 0.0334,-0.44181 0.44204,-5.35049 0.008,-0.002 0.25021,-4.4882 0.0417,-0.50873 0.41701,-7.126667 0.64221,-0.34391 0.15846,-0.581844 0.57548,-0.204356 0.70059,-0.321835 0.10008,-0.154429 0.19183,-2.854269 0.0167,-0.04556 0.32527,-3.952536 0.44204,-0.180946 0.41701,-0.178519 0.12511,-1.507216 0.25855,-1.815932 0.97581,-0.439848 0.13345,-2.759048 0.11676,-0.482229 1.41785,-0.450588 3.48625,-1.278058 0.17514,-0.711062 1.15096,-0.431685 0.12511,-0.220056 0.6422,-0.269352 0.19183,-0.08714 0.11676,-0.04426 0.25855,-3.638567 0.0584,-0.246061 0.4337,-2.891637 0.83403,-0.428508 0.13344,-1.322721 1.21769,-0.383231 0.1668,-1.433721 0.18349,-1.95886 0.40867,-3.398587 2.64388,-0.837761 0.15013,-1.799713 0.0751,-0.317928 0.15012,-2.252487 0.0667,-1.142386 0.1251,-0.349392 0.69225,-0.313963 0.1251,-0.0606 0.1251,-0.2797 0.95914,-0.411949 0.14178,-1.996279 0.008,241.611116 0.10842,-1.1134 0.19183,-3.0253 0.40033,-4.1595 2.09342,-0.75753 0.42535,-0.19177 0.39199,-5.80598 0.0834,-0.91452 0.1251,-1.10708 0.13345,-0.26028 0.35863,-0.2057 0.17515,-4.91716 0.1668,-1.69264 0.16681,-2.59195 0.25021,-2.20733 0.13344,-0.17356 0.31693,-3.93206 0.008,-0.0138 0.14179,-3.39945 0.0167,-0.0274 0.20851,-3.52492 0.26689,-3.20158 0.5171,-6.42578 0.0834,-1.33661 0.18349,-3.56488 1.70976,-25.18243 0.15012,-2.21527 0.30859,-4.50155 0.05,-0.67522 0.31693,-6.05729 0.21685,-3.01068 0.13344,-2.47676 0.025,-0.11722 0.18349,-2.60306 0.70892,-10.9369 0.19183,-3.06493 0.21685,-2.99527 0.1251,-0.99356 0.12511,-2.68446 0.05,-0.60429 0.15846,-3.25015 0.20017,-2.33737 4.70393,-70.782648 0.0751,-0.366044 0.26689,-3.941104 0.9508,-12.612931 0.0584,-0.653151 0.46706,-7.785025 0.0834,-1.075579 0.17515,-2.325209 0.025,-0.475467 0.13344,-2.060449 0.0417,-0.845745 0.70059,-10.055804 0.025,-0.41685 0.008,241.768826 0.10842,-0.80747 0.0417,-0.48067 0.3086,-4.42833 0.0667,-0.56951 0.18348,-2.12529 0.16681,-2.08819 0.20017,-2.17687 0.025,-0.13654 0.34195,-4.585 0.14179,-2.45144 0.29191,-4.37774 0.05,-0.22691 0.0334,-0.34826 0.14178,-3.23935 0.025,-0.16944 0.18348,-2.58482 0.18349,-1.71307 0.14178,-2.16645 1.01752,-14.79422 0.10008,-1.60813 0.14179,-2.56157 0.70058,-10.71237 0.05,-0.29146 0.22518,-2.1026 0.12511,-2.12604 0.0334,-0.55064 0.15847,-2.28889 1.38449,-21.53938 0.0667,-0.48289 0.0584,-0.85264 0.14179,-1.97783 0.19182,-3.70655 0.41702,-6.56468 0.0584,-1.51467 0.19183,-3.80101 0.0751,-0.71428 0.16681,-2.69005 0.15012,-2.08051 0.22519,-3.26726 0.18349,-3.43983 0.15846,-2.34281 0.24187,-2.82572 0.008,-0.003 0.25021,-5.44526 0.22519,-3.36916 0.13344,-2.85747 0.05,-0.39316 0.15847,-2.25423 0.0334,-0.25015 0.16681,-2.63204 0.05,-0.5435 0.14178,-1.96171 0.13345,-2.77375 0.18349,-4.7767 0.025,-0.24302 0.45037,-7.10925 0.025,-0.17871 0.15013,-3.44257 0.7256,-11.52661 0.23353,-2.47367 0.17515,-2.61098 0.0417,-0.19993 0.41702,-7.3359 0.27523,-4.655403 1.02585,-13.627784 0.14179,-2.629536 0.0834,-0.907365 0.70059,-9.159665 0.0584,-0.161814 0.18348,-2.838365 0.64221,-10.840998 0.15012,-1.670829 0.25855,-3.483557 0.008,241.879026 0.10843,-0.54624 0.0417,-0.30289 1.26772,-19.29852 0.14179,-3.69768 0.0751,-1.49169 0.13345,-3.09041 0.0751,-0.55878 0.25855,-3.82117 0.008,-10e-4 0.38365,-7.07997 0.0417,-0.45181 0.0584,-0.912 0.6422,-11.25806 0.11676,-1.87779 0.12511,-1.56725 0.26689,-4.13068 0.0334,-0.60109 0.17515,-2.51394 0.0417,-0.2085 0.0417,-0.28734 0.46706,-7.3166 0.15846,-2.11157 0.24187,-2.73786 0.008,-0.0156 0.14179,-2.85792 2.35196,-36.30868 0.0334,-0.44646 0.26689,-3.65442 0.6005,-8.89004 0.0417,-0.29795 2.04338,-32.04884 0.0584,-0.21133 0.35029,-6.19069 0.0834,-1.15554 1.55963,-22.48719 0.0334,-0.12508 0.24187,-3.09815 0.6422,-8.695955 0.0334,-0.550464 1.58465,-24.342754 0.18349,-3.273102 0.25855,-4.187098 0.0167,-0.08435 0.48374,-7.044012 0.008,241.719915 0.10842,-1.30392 0.0167,-0.0506 0.13345,-2.3198 0.05,-0.62796 0.1251,-1.54979 0.025,-0.30403 0.2085,-3.50437 0.0167,-0.0836 0.20017,-4.08618 0.29191,-4.1696 0.008,-0.0199 0.21685,-4.35712 0.0834,-0.61159 0.14179,-2.79226 0.0167,-0.12522 0.24187,-3.51624 0.15012,-2.48938 0.29191,-4.24043 0.025,-0.0774 0.14179,-2.62591 0.15846,-2.41141 0.24187,-4.01742 0.16681,-3.0814 0.81735,-14.63061 0.0334,-0.16935 0.21685,-4.80726 0.0751,-0.63056 1.94329,-28.54896 0.16681,-1.67194 0.23352,-3.59216 0.57548,-6.63983 0.0334,-0.62916 0.35863,-6.14266 0.0167,-0.14699 0.60884,-8.68847 0.008,-0.0134 0.15013,-2.13877 0.0584,-0.87701 0.20851,-3.13714 0.0834,-0.71898 3.40284,-50.25718 0.16681,-3.39107 0.26689,-3.49912 0.025,-0.1526 0.36697,-4.49257 0.16681,-2.01211 0.1251,-1.441959 0.15013,-3.135678 0.34195,-6.247991 0.0584,-0.872963 0.22519,-4.12852 0.05,-0.653669 0.26689,-4.798576 0.17515,-2.085402 0.35863,-5.006661 1.39283,-17.363123 0.0667,-0.708089 0.008,241.748311 0.10843,-1.24147 0.025,-0.39184 0.13344,-1.29993 0.20017,-2.76404 0.0334,-0.22148 0.93412,-15.1687 0.025,-0.0904 0.48373,-7.18911 0.15013,-1.16799 0.15012,-2.39966 0.025,-0.20058 0.18348,-2.90275 0.0584,-1.51132 0.19183,-3.31891 0.0667,-0.74875 0.57548,-8.37249 0.33362,-4.17485 0.1251,-1.65363 0.14179,-2.08902 0.14178,-2.42181 0.025,-0.0975 0.13345,-1.65876 0.0334,-0.74494 1.90993,-29.1824 0.0334,-0.21182 0.15846,-2.17127 0.10843,-1.2013 0.15846,-1.95934 0.025,-0.12339 0.22519,-3.15441 0.30859,-4.23623 0.13345,-3.5603 0.31693,-4.2452 0.15013,-2.27644 3.71143,-58.01302 0.008,-0.001 0.36697,-5.13635 0.16681,-2.18236 0.30859,-3.2666 0.008,-0.003 0.83403,-14.317487 0.0584,-0.558397 0.5588,-7.90382 0.0167,-0.219752 0.14179,-1.421153 0.27523,-4.116126 0.1251,-2.622987 0.10843,-1.639503 1.7598,-26.117822 0.008,241.764867 0.10842,-2.00904 0.025,-0.24268 0.17514,-2.91351 0.0167,-0.10588 0.35863,-5.40471 0.18349,-2.92128 0.19183,-2.74942 0.025,-0.83099 0.14178,-2.53566 0.11677,-1.40172 0.1668,-2.6994 0.0334,-0.653 0.40033,-5.48149 0.15847,-2.53247 0.28357,-5.08963 0.28357,-6.40146 0.35029,-4.87189 0.0584,-0.75811 0.10008,-1.64017 0.12511,-2.16545 0.26689,-2.51813 0.20017,-2.55127 0.55046,-8.90263 0.0834,-0.6196 0.21685,-4.39732 0.0584,-0.59893 2.1518,-30.83782 0.35029,-4.58269 0.0584,-0.47676 0.42536,-5.8407 0.13344,-2.12888 1.00918,-17.08047 0.0167,-0.12843 0.15846,-1.43317 0.15013,-2.15026 0.14178,-2.18524 0.0751,-0.95561 0.20016,-3.211 0.0667,-0.95333 0.48373,-6.03401 1.23437,-17.49126 0.05,-0.33475 0.42536,-6.37083 0.05,-0.39721 0.1251,-2.06179 0.12511,-1.79112 0.0417,-0.26498 0.61718,-8.73153 0.10842,-0.97835 0.14179,-2.40506 0.66722,-10.352057 0.0167,-0.160714 0.0167,-0.188889 0.21685,-2.769554 0.0584,-0.775144 0.15013,-2.515836 0.15847,-2.78447 0.27523,-4.245159 0.0334,-0.151018 0.2085,-3.398505 0.17515,-1.536073 0.0417,-0.185296 0.14179,-2.175335 0.0417,-0.518207 0.13344,-2.384456 0.17515,-1.979056 0.18349,-3.113972 0.59216,-8.007367 0.14178,-1.542308 0.0334,-1.228533 0.008,241.870399 0.10843,-1.21356 0.81735,-12.63044 0.025,-0.17622 0.20851,-3.26586 0.35863,-4.7831 0.14178,-2.25401 0.0417,-0.47104 0.18348,-2.7556 0.025,-0.30002 0.16681,-3.14461 0.0667,-0.8109 0.20017,-3.31344 0.16681,-2.50521 0.15012,-2.85725 0.0334,-0.24896 0.22519,-1.65169 0.27523,-5.10916 0.13344,-2.86776 0.0417,-1.15227 0.14178,-1.49001 0.21685,-2.06295 0.16681,-2.34207 0.0334,-0.0879 0.6839,-10.36523 0.13345,-1.6734 0.0417,-0.33885 0.43369,-7.3333 0.20851,-2.05094 0.13345,-2.74141 0.51709,-8.91099 0.12511,-1.66671 0.0667,-0.81196 0.392,-5.75155 0.1668,-2.14575 0.30025,-4.92171 0.05,-0.31048 0.18349,-2.88261 0.60884,-8.58525 0.21685,-2.77289 0.1251,-1.83035 1.55964,-22.99695 0.24187,-4.65558 0.0751,-0.41176 0.15013,-2.39205 0.65888,-9.29249 0.15013,-2.21374 0.78399,-9.85785 0.1668,-2.33097 0.0417,-0.3279 0.15013,-2.73139 0.05,-0.77183 0.23353,-3.51094 0.0667,-0.43975 0.14179,-1.87463 0.05,-0.27865 0.40867,-6.35929 0.008,-0.0115 0.23353,-3.703663 0.0834,-0.958962 0.30025,-4.049652 0.11677,-1.7879 0.31693,-5.630528 0.0334,-0.181076 0.20851,-3.965735 0.0167,-0.03335 0.53378,-7.658421 0.0167,-0.115148 0.0667,-1.412885 0.15013,-3.635316 0.025,-0.293782 0.18349,-3.883844 0.33361,-4.856143 0.27523,-4.500175 0.13344,-2.13852 0.008,241.8621 0.10843,-1.34441 0.62552,-7.05408 0.14178,-2.30785 0.16681,-2.24849 0.15013,-2.42442 0.13344,-2.1747 0.12511,-1.38972 0.20016,-4.56089 0.26689,-4.72764 0.0334,-0.0812 0.16681,-1.64325 0.15846,-1.83866 0.15013,-1.98776 0.0167,-0.25747 0.15013,-2.83221 0.0167,-0.0712 0.19182,-3.18136 0.10009,-1.69059 0.45871,-7.21193 0.025,-0.1649 0.54212,-8.74743 0.19183,-3.29692 0.0167,-0.0193 0.16681,-3.6256 0.0167,-0.13336 0.30025,-4.29144 0.0917,-1.08466 0.20851,-3.85824 0.14178,-1.57633 0.18349,-2.55178 0.13345,-2.2446 0.13344,-1.97309 0.008,-0.0204 0.17515,-2.83094 0.27523,-3.51447 0.17514,-3.81057 0.20017,-2.80096 0.0167,-0.0324 0.13345,-2.07302 0.025,-0.12394 0.19182,-2.43943 0.0334,-0.30939 0.0751,-0.93795 0.14178,-1.9981 0.42536,-7.30872 0.18349,-2.7817 0.96747,-15.44235 0.15013,-1.13167 0.13344,-1.39743 0.48374,-6.53089 0.61718,-9.1797 0.0751,-1.33245 0.15847,-2.11637 0.10842,-0.58698 0.15013,-1.36214 0.0334,-0.33147 0.13344,-1.94602 0.392,-8.63424 0.008,-0.0276 0.15012,-2.40815 0.18349,-2.23507 0.27523,-3.27228 0.58382,-8.1807 0.31693,-2.93477 0.16681,-2.62847 0.35029,-5.64072 0.008,-0.008 0.22519,-4.44878 0.18349,-2.709522 0.17514,-3.152801 0.21685,-2.875004 0.21685,-3.511006 0.0334,-0.414517 0.18349,-3.18667 2.28524,-30.648076 0.008,241.690396 0.10842,-2.1908 0.20851,-3.03691 0.05,-0.81112 0.17515,-4.30176 0.008,-0.0171 0.19183,-2.8116 0.0334,-0.5313 0.0917,-1.50358 0.40868,-6.73819 0.0167,-0.12851 0.2085,-2.72492 0.69225,-10.71818 0.0584,-0.34153 0.15013,-2.36089 0.0834,-0.80443 0.22519,-3.58806 0.0334,-0.29636 0.025,-0.56685 0.73395,-12.26724 0.21684,-2.75068 0.0334,-0.09 0.69225,-9.74028 0.15846,-3.13404 0.008,-0.0494 0.14178,-3.48466 0.008,-0.0126 0.20017,-3.29116 1.70976,-27.52727 0.1251,-2.04457 0.10009,-1.2518 0.80901,-10.53428 0.1668,-2.66923 0.0334,-0.1651 0.44204,-7.2865 0.14179,-2.37969 2.28524,-34.68509 0.0834,-0.60785 0.72561,-12.57886 0.0167,-0.16614 0.15012,-2.5692 0.22519,-2.4719 0.0167,-0.19844 0.17515,-3.89908 0.008,-0.007 0.18348,-1.93381 0.0334,-0.32771 0.37531,-5.683345 0.41701,-5.525485 0.025,-0.153761 0.20016,-3.399111 0.008,-0.0061 0.20851,-3.746795 0.0751,-0.752314 0.15847,-2.736613 0.10008,-0.844765 0.16681,-3.119184 0.05,-0.325747 0.26689,-3.972589 0.5171,-5.289815 0.55046,-9.488681 0.28357,-3.682063 0.0751,-1.246763 0.008,241.736081 0.10843,-1.7124 0.025,-0.066 0.23353,-3.49225 0.0167,-0.18424 0.25854,-3.57083 0.0667,-1.29857 0.19182,-2.21976 0.05,-0.28213 0.32527,-4.65972 0.32527,-5.56455 0.025,-0.14475 0.23353,-3.75409 0.33361,-5.01689 0.0417,-0.30837 0.18349,-1.89166 0.1668,-3.06841 0.14179,-1.53262 0.27523,-4.23917 1.64304,-23.88092 0.0751,-0.74909 0.26689,-4.35186 0.59216,-8.56644 0.10009,-1.56688 0.13344,-2.89041 0.80067,-10.26465 0.25021,-4.75446 0.0751,-1.44022 0.45038,-6.84699 0.15012,-1.80898 0.15013,-3.34389 0.0751,-0.50009 0.12511,-1.79663 0.19182,-2.53141 0.16681,-2.69505 0.025,-0.29615 0.11676,-2.093 0.26689,-4.5094 0.0417,-0.28701 0.15847,-2.37775 1.85155,-24.74338 0.14178,-1.56403 0.13345,-2.79934 0.25855,-2.95697 0.14178,-2.30751 0.0834,-1.51111 0.57549,-10.62865 0.0584,-0.41337 0.24187,-3.71316 0.0834,-0.7707 1.56798,-23.553924 0.025,-0.278338 0.33361,-4.96327 0.008,-0.0021 0.21685,-2.435388 0.0167,-0.102938 0.14178,-2.441862 0.0751,-0.858382 0.14178,-1.898562 0.45038,-6.354356 1.01751,-16.870148 0.008,241.642018 0.10843,-1.6714 0.40033,-7.59248 0.025,-0.13933 0.50042,-8.00923 0.18349,-3.03223 0.13344,-1.35229 0.15013,-1.77335 0.008,-0.012 0.21685,-3.56056 0.0334,-0.22184 0.69224,-11.02413 0.0334,-0.57656 0.20851,-3.61231 0.66722,-8.65964 0.18349,-3.55959 0.21685,-3.10675 0.0584,-0.933 0.14179,-2.60776 0.50041,-8.32111 0.0667,-1.34439 0.2085,-4.18828 0.15013,-1.61211 0.18349,-2.73455 0.14178,-1.3115 0.13345,-2.60514 0.26689,-5.40824 0.05,-0.11867 0.32527,-3.62943 0.13344,-1.7834 0.0334,-0.21464 0.1668,-2.40919 0.32527,-5.00519 0.17515,-3.14327 0.05,-1.0631 0.34195,-5.46636 0.025,-0.27583 0.1668,-2.77072 0.35029,-5.72114 0.025,-0.72646 0.0584,-1.47007 0.1668,-2.8357 0.025,-0.41561 0.52544,-6.04617 0.15013,-2.58971 0.70892,-9.81733 0.13345,-2.59226 0.15846,-1.82366 0.0917,-1.31245 0.15012,-1.96578 0.0167,-0.43608 2.45205,-38.25227 0.14179,-1.6965 0.15012,-1.43432 0.35863,-3.979896 0.008,-0.0011 0.17514,-2.453895 0.025,-0.193854 0.392,-6.148779 0.95079,-12.268759 0.15013,-2.493965 0.0334,-0.09728 0.15012,-2.728047 0.26689,-4.224745 0.22519,-3.534154 0.18349,-2.59645 0.18348,-3.344449 0.31694,-2.977471 0.0667,-0.704283 0.008,241.654457 0.10842,-1.93624 1.60968,-20.6849 0.14179,-2.89631 0.30025,-5.32059 0.1668,-2.46201 0.025,-0.29198 0.19183,-2.79107 1.50959,-22.21108 0.025,-0.30191 0.29192,-5.32655 0.0167,-0.10452 0.19182,-2.31152 1.66806,-25.11444 0.15013,-2.18753 0.24187,-2.4152 0.31693,-5.31023 0.0167,-0.0915 0.15847,-2.76563 0.92577,-13.23678 0.18349,-3.72877 0.025,-0.12427 0.1668,-2.82306 0.15847,-2.43233 0.93411,-14.25831 0.15847,-1.37751 0.50876,-8.01641 0.0334,-0.11837 0.15846,-2.18977 0.15847,-2.01765 1.30108,-17.71974 0.16681,-2.49513 0.15847,-1.81244 0.20016,-2.67877 0.34196,-3.91993 0.14178,-2.69164 0.26689,-2.77851 0.008,-0.003 0.23353,-3.65542 2.2352,-34.082246 0.14179,-1.883599 0.1668,-0.797402 0.13345,-2.569186 0.10842,-1.692691 0.30025,-5.081553 0.25021,-2.194157 0.008,-0.637289 0.008,241.541563 0.10842,-0.98815 0.17515,-1.61846 0.10842,-1.05128 0.15847,-1.96444 0.37531,-6.34286 0.73395,-8.99155 0.21685,-2.90462 0.008,-0.005 0.14178,-2.28106 0.28357,-3.93496 0.49208,-7.69846 0.29191,-3.75593 0.16681,-2.42971 0.025,-0.38214 0.20017,-2.61922 0.92577,-14.06394 0.0167,-0.071 0.18349,-2.9889 0.38365,-5.59322 0.0167,-0.16738 0.25855,-2.90628 0.12511,-2.64823 0.15012,-3.4941 0.34195,-4.23061 0.025,-0.11762 2.16848,-30.55354 0.16681,-3.1332 0.11676,-1.26141 0.29191,-4.86628 0.0417,-1.17595 0.25021,-3.97554 0.80067,-12.57673 0.71727,-9.2763 0.0834,-1.04912 0.65054,-9.50812 1.12595,-14.50254 0.15846,-2.26157 0.18349,-2.2562 0.15846,-2.96753 0.0167,-0.0204 0.15847,-3.21002 0.10842,-0.77402 0.33362,-5.65857 0.10008,-1.22599 0.25021,-4.116651 0.19183,-2.395451 0.17514,-3.219237 0.15847,-1.559047 0.18348,-2.573775 0.0417,-0.391453 0.1668,-2.333634 3.76982,-1.193991 0.13344,-1.907 0.0417,-0.154142 0.65889,-9.32823 0.13344,-2.313549 0.15013,-1.634071 0.1668,-4.746635 0.67557,-10.384958 0.008,241.629974 0.10842,-1.7743 0.16681,-3.37426 0.15846,-1.92866 0.05,-0.30317 0.17514,-2.95914 0.0417,-0.54535 0.19183,-3.2593 0.0667,-0.63295 0.18349,-2.58625 0.19183,-3.0132 0.1251,-3.33855 0.025,-0.22978 0.56714,-7.89515 0.0167,-0.0254 0.21685,-3.43505 0.0167,-0.0801 0.26689,-4.63742 0.5588,-8.07837 0.0167,-0.19514 0.17515,-3.51405 0.008,-0.002 0.40867,-7.3969 0.63387,-9.0928 0.0417,-0.26691 0.25021,-4.47991 0.025,-0.0432 0.33361,-4.78386 0.0167,-0.15797 0.26689,-4.46525 0.18349,-2.49026 0.025,-0.0801 0.45871,-8.04778 0.19183,-2.11129 0.13344,-2.04295 0.21685,-2.61732 0.0167,-0.10094 0.17515,-3.41362 0.0584,-0.34133 0.18349,-3.63086 0.23353,-3.40538 0.0584,-0.50596 0.23353,-3.87346 0.27523,-2.70269 0.14178,-3.7946 0.0751,-0.72087 0.54211,-6.82364 0.008,-0.005 1.01752,-14.98292 0.008,-0.005 0.19183,-2.35739 0.72561,-11.79089 0.15012,-3.68492 0.14179,-2.13937 0.008,-0.0207 0.13344,-2.65681 0.0584,-0.67037 0.64221,-9.20658 0.0334,-0.0971 0.15012,-2.13108 0.11677,-1.30129 4.04504,-61.378758 0.008,241.915548 0.10843,-1.88243 0.0334,-0.25498 0.22519,-3.81553 0.56714,-7.76114 0.0417,-0.51994 0.54212,-8.51726 0.18348,-2.56385 0.45872,-7.3535 0.36697,-3.89788 0.53378,-9.4692 0.0917,-0.98409 0.22518,-4.37328 0.008,-0.009 0.28358,-4.50039 0.11676,-1.43205 0.29191,-4.42186 0.0167,-0.0288 0.15847,-2.79625 0.25855,-3.11633 0.46705,-5.96533 0.05,-0.41539 0.16681,-2.15523 0.14179,-2.58408 0.21684,-3.3811 0.0167,-0.14589 2.60218,-36.95164 0.10008,-1.44129 0.28357,-4.84325 0.31693,-3.77013 0.14179,-1.46659 0.0167,-0.0393 0.17514,-2.0783 0.15847,-2.58353 0.16681,-1.64416 0.18348,-3.34403 0.13345,-1.97376 1.47623,-18.81128 0.15013,-1.7419 0.65054,-8.61934 0.41702,-0.30368 0.36697,-0.1997 0.14178,-0.0892 0.13345,-0.70588 3.06923,-0.98594 0.0751,-0.1274 0.14179,-0.60283 0.29191,-0.10807 0.22519,-2.53407 0.35029,-0.22006 0.1668,-0.32027 0.30025,-1.81782 0.19183,-0.1771 0.025,-0.15428 0.15013,-1.16981 0.50876,-0.19875 0.14178,-2.16805 0.0751,-0.0939 0.25855,-0.34318 0.60885,-0.29551 0.10008,-1.49737 0.61718,-5.48333 0.88407,-0.65999 0.30025,-4.419834 0.008,-0.01154 0.18349,-2.403944 0.008,-0.0069 0.16681,-3.003893 0.14178,-0.454501 0.55046,-0.325786 0.25855,-4.911817 0.0167,-0.216783 v 0"
       clip-path="url(#pac2e7e0acb)"
       style="fill:none;stroke:#1f77b4;stroke-width:1.5;stroke-linecap:square"
       id="path4406" />
  </g>
  <g
     id="patch_3">
    <path
       d="M 57.6,307.584 V 41.472"
       style="fill:none;stroke:#000000;stroke-width:0.8;stroke-linecap:square;stroke-linejoin:miter"
       id="path4409" />
  </g>
  <g
     id="patch_4">
    <path
       d="M 414.72,307.584 V 41.472"
       style="fill:none;stroke:#000000;stroke-width:0.8;stroke-linecap:square;stroke-linejoin:miter"
       id="path4412" />
  </g>
  <g
     id="patch_5">
    <path
       d="M 57.6,307.584 H 414.72"
       style="fill:none;stroke:#000000;stroke-width:0.8;stroke-linecap:square;stroke-linejoin:miter"
       id="path4415" />
  </g>
  <g
     id="patch_6">
    <path
       d="M 57.6,41.472 H 414.72"
       style="fill:none;stroke:#000000;stroke-width:0.8;stroke-linecap:square;stroke-linejoin:miter"
       id="path4418" />
  </g>
  <defs
     id="defs4628">
    <clipPath
       id="pac2e7e0acb">
      <rect
         x="57.6"
         y="41.472"
         width="357.12"
         height="266.112"
         id="rect4625" />
    </clipPath>
  </defs>
  <rect
     style="opacity:1;fill:none;fill-opacity:1;fill-rule:nonzero;stroke:#000000;stroke-width:2.83465;stroke-linecap:round;stroke-linejoin:round;stroke-miterlimit:4;stroke-dasharray:none;stroke-dashoffset:0;stroke-opacity:1"
     id="rect5615"
     width="39.163376"
     height="112.92323"
     x="107.47807"
     y="49.150372" />
</svg>
